# xmcd
#
# Track frame offsets:
#	150
#	9545
#	20467
#	34787
#	44740
#	54880
#	66225
#	77960
#	89027
#	99397
#
# Disc length: 1481 seconds
#
# Revision: 0
# Processed by: cddbd v1.5.1PL2 Copyright (c) Steve Scherf et al.
# Submitted via: dBpowerAMP V4.0
#
DISCID=7f05c70a
DTITLE=Conway Twitty - Dueling Country
DYEAR=1999
DGENRE=Country
TTITLE0=This Road That I Walk
TTITLE1=Mona Lisa
TTITLE2=I Need Your Lovin'
TTITLE3=It's Only Make Believe
TTITLE4=Midnight (Instrumental)
TTITLE5=Have I Been Away Too Long
TTITLE6=Is A Bluebird Blue
TTITLE7=Big Town
TTITLE8=Halfway To Heaven
TTITLE9=What Am I Living For
EXTD=Two disc Set .Also Johnny Paycheck
EXTT0=
EXTT1=
EXTT2=
EXTT3=
EXTT4=
EXTT5=
EXTT6=
EXTT7=
EXTT8=
EXTT9=
PLAYORDER=
